<svg version="1.1" xmlns="http://www.w3.org/2000/svg" xmlns:xlink="http://www.w3.org/1999/xlink" width="48" height="48"><defs><linearGradient x1="9.82524" y1="12.79349" x2="40.01976" y2="37.05151" gradientUnits="userSpaceOnUse" id="color-1"><stop offset="1" stop-color="#000000" stop-opacity="0.09"></stop><stop offset="1" stop-color="#000000" stop-opacity="0"></stop></linearGradient><filter id="dropshadow-base"><feColorMatrix type="matrix" values="0 0 0 0 0  0 0 0 0 0  0 0 0 0 0  0 0 0 .8 0"></feColorMatrix> <feOffset dx="0" dy="1"></feOffset> <feGaussianBlur stdDeviation="1"></feGaussianBlur> <feComposite in="SourceGraphic"></feComposite></filter><filter id="dropshadow-banner" x="-10%" y="-10%" width="120%" height="130%"><feColorMatrix type="matrix" values="0 0 0 0 0  0 0 0 0 0  0 0 0 0 0  0 0 0 .4 0"></feColorMatrix> <feOffset dx="0" dy="1"></feOffset> <feGaussianBlur stdDeviation="0.5"></feGaussianBlur> <feComposite in="SourceGraphic"></feComposite></filter></defs><g fill="none" fill-rule="nonzero" stroke="none" stroke-width="none" stroke-linecap="butt" stroke-linejoin="miter" stroke-miterlimit="10" stroke-dasharray="" stroke-dashoffset="0" font-family="none" font-weight="none" font-size="none" text-anchor="none" style="mix-blend-mode: normal"><path d="M2,24c0,-12.15026 9.84974,-22 22,-22c12.15026,0 22,9.84974 22,22c0,12.15026 -9.84974,22 -22,22c-12.15026,0 -22,-9.84974 -22,-22z" id="base 1 5" fill="#46c6fc" stroke-width="1"></path><path d="M37.42508,14.64207c-0.11361,0.01585 -0.26913,0.08451 -0.46654,0.206c-0.35241,0.21692 -0.54427,0.31002 -0.5752,0.27909l-0.0419,-0.0419c-0.06202,0.03507 -0.19124,0.14582 -0.38756,0.33228c-0.31114,0.29535 -0.46645,0.44296 -0.46645,0.44296l-0.4669,0.46656c-0.4111,0.39032 -1.0096,0.68816 -1.79539,0.89379c-0.78579,0.20602 -1.64783,0.33226 -2.58651,0.3798c-0.93868,0.0476 -1.88001,0.07929 -2.82395,0.09497c-0.944,0.01568 -1.89059,0.06328 -2.8398,0.1423c-0.9492,0.07918 -1.71388,0.21361 -2.29382,0.40346c-1.14974,0.37963 -2.22549,0.88337 -3.22745,1.51097c-1.00201,0.62754 -1.90101,1.36058 -2.69733,2.19913c-0.79627,0.83844 -1.42391,1.81141 -1.88256,2.91887c-0.45858,1.10713 -0.68816,2.26751 -0.68816,3.48036c0,0.55905 0.04737,1.1074 0.1423,1.64539c0.02111,0.10539 0.10539,0.33752 0.25323,0.69608c0.14773,0.35879 0.22148,0.55905 0.22148,0.60149c0,0.20003 -0.16346,0.45361 -0.4905,0.75903c-0.32698,0.30593 -0.68545,0.60134 -1.07576,0.88592c-0.3902,0.28466 -0.74872,0.63014 -1.07576,1.03615c-0.32671,0.40633 -0.49028,0.794 -0.49028,1.16298c0,0.02204 0.00069,0.0438 0.00208,0.06532c0.04255,0.00229 0.08603,0.00343 0.13044,0.00343c0.30603,0 0.62233,-0.16872 0.94937,-0.50591c0.32671,-0.33735 0.60372,-0.70694 0.83046,-1.1074c0.22664,-0.40068 0.46412,-0.76994 0.71187,-1.1074c0.24775,-0.33735 0.45614,-0.50614 0.62482,-0.50614c0.24253,0 0.74872,0.19527 1.51873,0.58553c0.76989,0.39043 1.23401,0.61174 1.39222,0.66467c1.45539,0.49566 2.96347,0.74352 4.52453,0.74352c2.36265,0 4.6721,-0.57002 6.92929,-1.70895c2.31,-1.14952 4.19495,-2.56263 5.65581,-4.23973c1.46088,-1.67726 2.43368,-3.69658 2.91898,-6.05945c0.21045,-1.0336 0.3159,-2.05129 0.3159,-3.0533c0.00006,-0.40079 -0.04206,-0.90704 -0.12651,-1.51846l0.00001,0.00001c-0.08455,-0.61164 -0.21083,-1.26587 -0.37963,-1.96201c-0.06796,-0.2802 -0.14913,-0.54334 -0.24354,-0.7894zM40.01976,20.75694c0,1.00201 -0.10545,2.0197 -0.3159,3.0533c-0.4853,2.36288 -1.4581,4.3822 -2.91898,6.05945c-1.46086,1.6771 -3.34581,3.09021 -5.65581,4.23973c-2.25719,1.13893 -4.56664,1.70895 -6.92929,1.70895c-1.56105,0 -3.06913,-0.24786 -4.52453,-0.74352c-0.1582,-0.05293 -0.62233,-0.27424 -1.39222,-0.66467c-0.77,-0.39026 -1.2762,-0.58553 -1.51873,-0.58553c-0.16868,0 -0.37708,0.16879 -0.62482,0.50614c-0.24775,0.33746 -0.48523,0.70673 -0.71187,1.1074c-0.22674,0.40047 -0.50374,0.77006 -0.83046,1.1074c-0.32704,0.33719 -0.64334,0.50591 -0.94937,0.50591c-0.3163,0 -0.58549,-0.05802 -0.8068,-0.17388c-0.17052,-0.08946 -0.30658,-0.18496 -0.40827,-0.28664l-1.84502,-1.84502c-0.03046,-0.03046 -0.05783,-0.06147 -0.08212,-0.09304c-0.10539,-0.13703 -0.24775,-0.35873 -0.42711,-0.66444c-0.02122,-0.0419 -0.05257,-0.10036 -0.09497,-0.17411c-0.04207,-0.07358 -0.07121,-0.12611 -0.08695,-0.15798c-0.01573,-0.03141 -0.03164,-0.08135 -0.0476,-0.15c-0.01596,-0.06882 -0.02371,-0.13969 -0.02371,-0.21367c0,-0.36898 0.16356,-0.75665 0.49028,-1.16298c0.32704,-0.40601 0.68556,-0.75149 1.07576,-1.03615c0.39032,-0.28459 0.74878,-0.57999 1.07576,-0.88592c0.32704,-0.30542 0.4905,-0.559 0.4905,-0.75903c0,-0.04244 -0.07375,-0.2427 -0.22148,-0.60149c-0.14784,-0.35856 -0.23213,-0.59069 -0.25323,-0.69608c-0.09493,-0.53799 -0.1423,-1.08634 -0.1423,-1.64539c0,-1.21285 0.22957,-2.37322 0.68816,-3.48036c0.45865,-1.10746 1.0863,-2.08043 1.88256,-2.91887c0.79632,-0.83855 1.69532,-1.57158 2.69733,-2.19913c1.00196,-0.6276 2.07771,-1.13134 3.22745,-1.51097c0.57993,-0.18984 1.34462,-0.32428 2.29382,-0.40346c0.94921,-0.07902 1.8958,-0.12662 2.8398,-0.1423c0.94394,-0.01568 1.88527,-0.04737 2.82395,-0.09497c0.93868,-0.04754 1.80072,-0.17378 2.58651,-0.3798c0.78579,-0.20563 1.38429,-0.50347 1.79539,-0.89379l0.4669,-0.46656c0,0 0.15531,-0.14762 0.46645,-0.44296c0.26301,-0.2498 0.4056,-0.36372 0.4275,-0.34182l0.05223,0.05223c0.08228,-0.02182 0.25731,-0.11515 0.52494,-0.27988c0.33234,-0.20452 0.54594,-0.25933 0.64077,-0.16449l0.09429,0.09429c0.2821,0.01276 0.5455,0.14143 0.78999,0.38591l1.84502,1.84502c0.09582,0.09582 0.18873,0.20942 0.27872,0.34081c0.33226,0.4853 0.58255,1.07598 0.75133,1.7719c0.16879,0.69615 0.29508,1.35039 0.37963,1.96203l-0.00001,-0.00001c0.08445,0.61141 0.12656,1.11765 0.12651,1.51844zM25.94734,25.72446c-1.38667,0.54835 -2.80262,1.47656 -4.24758,2.78428c-0.21068,0.20043 -0.56404,0.54835 -1.0598,1.04413c-0.49566,0.49582 -0.88604,0.87019 -1.17062,1.12319c-0.22159,0.20043 -0.45881,0.30072 -0.71204,0.30072c-0.27439,0 -0.51161,-0.1003 -0.7121,-0.30072c-0.00041,-0.00041 -0.00082,-0.00082 -0.00123,-0.00123l-1.84502,-1.84502c-0.19961,-0.19961 -0.29932,-0.43698 -0.29932,-0.71064c0,-0.25318 0.10013,-0.49006 0.30055,-0.71193c1.28666,-1.42387 2.52861,-2.58142 3.72572,-3.47243c1.19712,-0.89108 2.56567,-1.59769 4.10551,-2.11989c1.53956,-0.52214 3.21648,-0.78314 5.03044,-0.78314c0.27418,0 0.51178,0.10024 0.71227,0.30055l1.84502,1.84502c0.2002,0.20064 0.30055,0.43792 0.30055,0.71204c-0.00006,0.27418 -0.09996,0.51151 -0.3006,0.71187v0.00001c-0.20043,0.20043 -0.43803,0.30066 -0.71227,0.30066c-1.91946,0 -3.57245,0.27424 -4.95946,0.82253zM28.29087,23.07223c0.25201,-0.01021 0.50899,-0.01532 0.77093,-0.01532c0.18024,0 0.34466,-0.0433 0.4931,-0.12988c-0.42966,0.03257 -0.851,0.08097 -1.26402,0.1452z" fill="url(#color-1)" stroke-width="1"></path><path d="M38.04825,17.3935c-0.08456,-0.61164 -0.21084,-1.26588 -0.37963,-1.96202c-0.16878,-0.69592 -0.41908,-1.28661 -0.75133,-1.7719c-0.33225,-0.48508 -0.70428,-0.72778 -1.11544,-0.72778c-0.04738,-0.20569 -0.27684,-0.18197 -0.68832,0.07126c-0.41132,0.25318 -0.60393,0.33768 -0.57722,0.25318c0.02615,-0.08445 -0.11648,0.02095 -0.42745,0.31629c-0.31114,0.29534 -0.46646,0.44296 -0.46646,0.44296l-0.4669,0.46657c-0.4111,0.39032 -1.0096,0.68816 -1.79539,0.89379c-0.78579,0.20602 -1.64783,0.33225 -2.58651,0.37979c-0.93867,0.0476 -1.88001,0.07929 -2.82395,0.09498c-0.94399,0.01568 -1.89059,0.06328 -2.83979,0.1423c-0.9492,0.07918 -1.71388,0.21361 -2.29382,0.40345c-1.14974,0.37963 -2.2255,0.88338 -3.22746,1.51097c-1.00201,0.62754 -1.90101,1.36058 -2.69733,2.19913c-0.79627,0.83844 -1.42391,1.81141 -1.88256,2.91887c-0.45859,1.10713 -0.68816,2.26751 -0.68816,3.48036c0,0.55905 0.04738,1.10741 0.1423,1.6454c0.02111,0.10539 0.10539,0.33751 0.25323,0.69608c0.14773,0.35879 0.22148,0.55905 0.22148,0.6015c0,0.20004 -0.16346,0.4536 -0.4905,0.75903c-0.32698,0.30593 -0.68544,0.60133 -1.07576,0.88592c-0.39021,0.28465 -0.74872,0.63014 -1.07576,1.03615c-0.32671,0.40633 -0.49028,0.794 -0.49028,1.16298c0,0.07397 0.00776,0.14485 0.02372,0.21367c0.01596,0.06866 0.03186,0.11858 0.0476,0.15c0.01574,0.03186 0.04488,0.08439 0.08694,0.15798c0.04239,0.07375 0.07375,0.13221 0.09498,0.1741c0.17937,0.30571 0.32172,0.52741 0.42711,0.66444c0.10539,0.13698 0.2688,0.26343 0.49039,0.37968c0.22131,0.11587 0.4905,0.17388 0.80679,0.17388c0.30604,0 0.62233,-0.16873 0.94937,-0.50591c0.32671,-0.33735 0.60371,-0.70694 0.83046,-1.10741c0.22663,-0.40068 0.46413,-0.76995 0.71187,-1.10741c0.24775,-0.33735 0.45615,-0.50613 0.62482,-0.50613c0.24254,0 0.74872,0.19527 1.51872,0.58554c0.76989,0.39043 1.23402,0.61175 1.39222,0.66466c1.45539,0.49566 2.96347,0.74352 4.52453,0.74352c2.36264,0 4.67209,-0.57002 6.92929,-1.70896c2.31,-1.14952 4.19494,-2.56263 5.65582,-4.23972c1.46087,-1.67726 2.43368,-3.69658 2.91898,-6.05945c0.21045,-1.0336 0.3159,-2.05129 0.3159,-3.0533c0.00006,-0.40079 -0.04206,-0.90704 -0.1265,-1.51845zM29.77407,22.75625c-0.20042,0.20042 -0.43803,0.30066 -0.71226,0.30066c-1.91946,0 -3.57245,0.27423 -4.95946,0.82253c-1.38668,0.54836 -2.80261,1.47656 -4.24758,2.78428c-0.21068,0.20042 -0.56404,0.54836 -1.0598,1.04412c-0.49566,0.49582 -0.88603,0.87019 -1.17063,1.1232c-0.22159,0.20042 -0.45881,0.30072 -0.71204,0.30072c-0.2744,0 -0.51162,-0.1003 -0.7121,-0.30072c-0.20042,-0.19987 -0.30055,-0.43764 -0.30055,-0.71188c0,-0.25318 0.10013,-0.49006 0.30055,-0.71193c1.28666,-1.42386 2.5286,-2.58142 3.72572,-3.47244c1.19711,-0.89108 2.56567,-1.59769 4.10551,-2.11989c1.53956,-0.52215 3.21648,-0.78314 5.03044,-0.78314c0.27418,0 0.51178,0.10024 0.71226,0.30055c0.2002,0.20065 0.30055,0.43792 0.30055,0.71204c-0.00006,0.27418 -0.09996,0.51151 -0.30061,0.71188z" fill="none" stroke-width="0"></path><g id="Capa_1 2" stroke-width="1"><g fill="#91dc5a"><path d="M38.04825,17.3935c-0.08456,-0.61164 -0.21084,-1.26588 -0.37963,-1.96202c-0.16878,-0.69592 -0.41908,-1.28661 -0.75133,-1.7719c-0.33225,-0.48508 -0.70428,-0.72778 -1.11544,-0.72778c-0.04738,-0.20569 -0.27684,-0.18197 -0.68832,0.07126c-0.41132,0.25318 -0.60393,0.33768 -0.57722,0.25318c0.02615,-0.08445 -0.11648,0.02095 -0.42745,0.31629c-0.31114,0.29534 -0.46646,0.44296 -0.46646,0.44296l-0.4669,0.46657c-0.4111,0.39032 -1.0096,0.68816 -1.79539,0.89379c-0.78579,0.20602 -1.64783,0.33225 -2.58651,0.37979c-0.93867,0.0476 -1.88001,0.07929 -2.82395,0.09498c-0.94399,0.01568 -1.89059,0.06328 -2.83979,0.1423c-0.9492,0.07918 -1.71388,0.21361 -2.29382,0.40345c-1.14974,0.37963 -2.2255,0.88338 -3.22746,1.51097c-1.00201,0.62754 -1.90101,1.36058 -2.69733,2.19913c-0.79627,0.83844 -1.42391,1.81141 -1.88256,2.91887c-0.45859,1.10713 -0.68816,2.26751 -0.68816,3.48036c0,0.55905 0.04738,1.10741 0.1423,1.6454c0.02111,0.10539 0.10539,0.33751 0.25323,0.69608c0.14773,0.35879 0.22148,0.55905 0.22148,0.6015c0,0.20004 -0.16346,0.4536 -0.4905,0.75903c-0.32698,0.30593 -0.68544,0.60133 -1.07576,0.88592c-0.39021,0.28465 -0.74872,0.63014 -1.07576,1.03615c-0.32671,0.40633 -0.49028,0.794 -0.49028,1.16298c0,0.07397 0.00776,0.14485 0.02372,0.21367c0.01596,0.06866 0.03186,0.11858 0.0476,0.15c0.01574,0.03186 0.04488,0.08439 0.08694,0.15798c0.04239,0.07375 0.07375,0.13221 0.09498,0.1741c0.17937,0.30571 0.32172,0.52741 0.42711,0.66444c0.10539,0.13698 0.2688,0.26343 0.49039,0.37968c0.22131,0.11587 0.4905,0.17388 0.80679,0.17388c0.30604,0 0.62233,-0.16873 0.94937,-0.50591c0.32671,-0.33735 0.60371,-0.70694 0.83046,-1.10741c0.22663,-0.40068 0.46413,-0.76995 0.71187,-1.10741c0.24775,-0.33735 0.45615,-0.50613 0.62482,-0.50613c0.24254,0 0.74872,0.19527 1.51872,0.58554c0.76989,0.39043 1.23402,0.61175 1.39222,0.66466c1.45539,0.49566 2.96347,0.74352 4.52453,0.74352c2.36264,0 4.67209,-0.57002 6.92929,-1.70896c2.31,-1.14952 4.19494,-2.56263 5.65582,-4.23972c1.46087,-1.67726 2.43368,-3.69658 2.91898,-6.05945c0.21045,-1.0336 0.3159,-2.05129 0.3159,-3.0533c0.00006,-0.40079 -0.04206,-0.90704 -0.1265,-1.51845zM29.77407,22.75625c-0.20042,0.20042 -0.43803,0.30066 -0.71226,0.30066c-1.91946,0 -3.57245,0.27423 -4.95946,0.82253c-1.38668,0.54836 -2.80261,1.47656 -4.24758,2.78428c-0.21068,0.20042 -0.56404,0.54836 -1.0598,1.04412c-0.49566,0.49582 -0.88603,0.87019 -1.17063,1.1232c-0.22159,0.20042 -0.45881,0.30072 -0.71204,0.30072c-0.2744,0 -0.51162,-0.1003 -0.7121,-0.30072c-0.20042,-0.19987 -0.30055,-0.43764 -0.30055,-0.71188c0,-0.25318 0.10013,-0.49006 0.30055,-0.71193c1.28666,-1.42386 2.5286,-2.58142 3.72572,-3.47244c1.19711,-0.89108 2.56567,-1.59769 4.10551,-2.11989c1.53956,-0.52215 3.21648,-0.78314 5.03044,-0.78314c0.27418,0 0.51178,0.10024 0.71226,0.30055c0.2002,0.20065 0.30055,0.43792 0.30055,0.71204c-0.00006,0.27418 -0.09996,0.51151 -0.30061,0.71188z"></path></g><g fill="#000000" font-family="Roboto, sans-serif" font-weight="normal" font-size="14" text-anchor="start"></g><g fill="#000000" font-family="Roboto, sans-serif" font-weight="normal" font-size="14" text-anchor="start"></g><g fill="#000000" font-family="Roboto, sans-serif" font-weight="normal" font-size="14" text-anchor="start"></g><g fill="#000000" font-family="Roboto, sans-serif" font-weight="normal" font-size="14" text-anchor="start"></g><g fill="#000000" font-family="Roboto, sans-serif" font-weight="normal" font-size="14" text-anchor="start"></g><g fill="#000000" font-family="Roboto, sans-serif" font-weight="normal" font-size="14" text-anchor="start"></g><g fill="#000000" font-family="Roboto, sans-serif" font-weight="normal" font-size="14" text-anchor="start"></g><g fill="#000000" font-family="Roboto, sans-serif" font-weight="normal" font-size="14" text-anchor="start"></g><g fill="#000000" font-family="Roboto, sans-serif" font-weight="normal" font-size="14" text-anchor="start"></g><g fill="#000000" font-family="Roboto, sans-serif" font-weight="normal" font-size="14" text-anchor="start"></g><g fill="#000000" font-family="Roboto, sans-serif" font-weight="normal" font-size="14" text-anchor="start"></g><g fill="#000000" font-family="Roboto, sans-serif" font-weight="normal" font-size="14" text-anchor="start"></g><g fill="#000000" font-family="Roboto, sans-serif" font-weight="normal" font-size="14" text-anchor="start"></g><g fill="#000000" font-family="Roboto, sans-serif" font-weight="normal" font-size="14" text-anchor="start"></g><g fill="#000000" font-family="Roboto, sans-serif" font-weight="normal" font-size="14" text-anchor="start"></g></g><path d="M2,24c0,-12.15026 9.84974,-22 22,-22c12.15026,0 22,9.84974 22,22c0,12.15026 -9.84974,22 -22,22c-12.15026,0 -22,-9.84974 -22,-22z" id="base 1 1 1" fill="none" stroke-width="1"></path><g id="Capa_1 1 1" fill="#000000" stroke-width="1" font-family="Roboto, sans-serif" font-weight="normal" font-size="14" text-anchor="start"><g></g><g></g><g></g><g></g><g></g><g></g><g></g><g></g><g></g><g></g><g></g><g></g><g></g><g></g><g></g><g></g></g><rect x="2" y="2" width="44" height="22" fill="none" stroke-width="1"></rect><path d="M2,24v-22h44v22z" fill="none" stroke-width="1"></path><path d="M2,24v-22h44v22z" fill="none" stroke-width="1"></path><path d="M2,24v-22h44v22z" fill="none" stroke-width="1"></path><path d="M2,24v-22h44v22z" fill="none" stroke-width="1"></path></g></svg>